<svg xmlns="http://www.w3.org/2000/svg" height="512pt" version="1.1" viewBox="0 0 512 512.00013" width="512pt">
<g id="surface1">
<path d="M 486.335938 115.605469 C 492.195312 121.464844 501.6875 121.464844 507.546875 115.605469 C 513.40625 109.746094 513.40625 100.253906 507.546875 94.394531 L 417.546875 4.394531 C 411.6875 -1.464844 402.195312 -1.464844 396.335938 4.394531 C 390.476562 10.253906 390.476562 19.746094 396.335938 25.605469 L 420.097656 49.367188 L 267.519531 201.941406 L 309.941406 244.367188 C 309.941406 244.367188 309.941406 244.371094 309.945312 244.371094 L 462.519531 91.789062 Z M 486.335938 115.605469 " style=" stroke:none;fill-rule:nonzero;fill:rgb(0%,0%,0%);fill-opacity:1;" />
<path d="M 140.238281 180.71875 L 92.183594 227.136719 C 21.839844 297.492188 -11.320312 398.214844 3.457031 496.5625 C 4.453125 503.15625 9.683594 508.3125 16.289062 509.207031 C 113.015625 522.253906 212.023438 489.125 281.132812 420.011719 L 331.164062 371.644531 C 337.023438 365.789062 337.019531 356.292969 331.164062 350.433594 L 288.734375 308.003906 L 234.933594 360.160156 C 216.269531 378.835938 192.613281 391.390625 166.507812 396.503906 C 163.496094 396.128906 144.21875 402.324219 126.078125 384.183594 C 115.503906 373.664062 110.84375 358.578125 113.671875 343.886719 C 118.636719 317.882812 131.222656 294.152344 150.085938 275.300781 L 203.882812 223.15625 L 161.445312 180.71875 C 155.824219 175.09375 145.863281 175.09375 140.238281 180.71875 Z M 140.238281 180.71875 " style=" stroke:none;fill-rule:nonzero;fill:rgb(0%,0%,0%);fill-opacity:1;" />
<path d="M 147.289062 362.972656 C 150.832031 366.511719 155.921875 368.011719 160.753906 367.058594 C 180.96875 363.101562 199.292969 353.375 213.722656 338.949219 L 288.734375 265.582031 C 288.730469 265.578125 288.730469 265.578125 288.730469 265.578125 L 246.308594 223.15625 L 171.300781 296.511719 C 156.710938 311.101562 146.96875 329.425781 143.128906 349.523438 C 142.191406 354.417969 143.761719 359.457031 147.289062 362.972656 Z M 147.289062 362.972656 " style=" stroke:none;fill-rule:nonzero;fill:rgb(0%,0%,0%);fill-opacity:1;" />
</g>
</svg>